<svg xmlns="http://www.w3.org/2000/svg" width="1280" height="720" viewBox="0 0 1280 720"><defs><linearGradient id="bg" x1="0" y1="0" x2="1" y2="1"><stop stop-color="#06111b"/><stop offset="1" stop-color="#0b2234"/></linearGradient><linearGradient id="term" x1="0" y1="0" x2="0" y2="1"><stop stop-color="#0d1b28"/><stop offset="1" stop-color="#07121c"/></linearGradient></defs><rect width="1280" height="720" fill="url(#bg)"/><g opacity=".12" stroke="#2a8da5" stroke-width="1"><path d="M0 80H1280M0 160H1280M0 240H1280M0 320H1280M0 400H1280M0 480H1280M0 560H1280M0 640H1280"/><path d="M80 0V720M160 0V720M240 0V720M320 0V720M400 0V720M480 0V720M560 0V720M640 0V720M720 0V720M800 0V720M880 0V720M960 0V720M1040 0V720M1120 0V720M1200 0V720"/></g><g font-family="Arial,Helvetica,sans-serif"><text x="70" y="76" fill="#69e6ff" font-size="18" font-weight="700" letter-spacing="4">AUTHORIZED WEB APPLICATION SECURITY ASSESSMENT</text><text x="70" y="160" fill="#fff" font-size="63" font-weight="900">Evidence first.</text><text x="70" y="226" fill="#74dcff" font-size="63" font-weight="900">Every case explained.</text><text x="70" y="278" fill="#bacbd6" font-size="22">Ten controlled-lab vulnerability modules, payload records,</text><text x="70" y="310" fill="#bacbd6" font-size="22">security-level observations and 38 evidence screenshots.</text><g transform="translate(70 370)"><rect width="540" height="240" rx="24" fill="#0a1824" stroke="#1f5366" stroke-width="2"/><rect width="540" height="48" rx="24" fill="#102737"/><circle cx="28" cy="24" r="7" fill="#ff6b6b"/><circle cx="52" cy="24" r="7" fill="#ffd166"/><circle cx="76" cy="24" r="7" fill="#4bd69d"/><text x="112" y="31" fill="#9cc1cf" font-size="14">casebook@dvwa-lab</text><text x="425" y="31" fill="#58e3ad" font-size="13" font-weight="700">COMPLETE</text><g font-family="monospace" font-size="15"><text x="24" y="84" fill="#89aab7">$ assessment --target dvwa.local --authorized</text><text x="24" y="116" fill="#62e4b1">[+] modules loaded: injection, files, session, xss</text><text x="24" y="148" fill="#62e4b1">[+] security levels: low / medium / high</text><text x="24" y="180" fill="#62e4b1">[+] evidence indexed: 38 screenshots</text><text x="24" y="212" fill="#7af3be">[✓] casebook status: READY FOR REVIEW</text></g></g><g transform="translate(700 120)"><rect width="500" height="490" rx="28" fill="url(#term)" stroke="#1b5266" stroke-width="2"/><text x="36" y="58" fill="#8db3c0" font-size="15" letter-spacing="3">RISK DISTRIBUTION</text><circle cx="155" cy="205" r="96" fill="none" stroke="#152f40" stroke-width="30"/><path d="M155 109A96 96 0 0 1 239 252" fill="none" stroke="#ff5e72" stroke-width="30"/><path d="M239 252A96 96 0 0 1 94 282" fill="none" stroke="#ff9a5a" stroke-width="30"/><path d="M94 282A96 96 0 0 1 155 109" fill="none" stroke="#ffd166" stroke-width="30"/><text x="128" y="199" fill="#fff" font-size="52" font-weight="900">10</text><text x="122" y="228" fill="#91aab5" font-size="15">findings</text><g font-size="18" font-weight="700"><circle cx="310" cy="158" r="7" fill="#ff5e72"/><text x="330" y="165" fill="#dbe7ec">Critical</text><text x="442" y="165" fill="#fff">2</text><circle cx="310" cy="212" r="7" fill="#ff9a5a"/><text x="330" y="219" fill="#dbe7ec">High</text><text x="442" y="219" fill="#fff">5</text><circle cx="310" cy="266" r="7" fill="#ffd166"/><text x="330" y="273" fill="#dbe7ec">Medium</text><text x="442" y="273" fill="#fff">3</text></g><rect x="36" y="340" width="128" height="106" rx="16" fill="#102b3a"/><text x="54" y="375" fill="#86a7b4" font-size="13">MODULES</text><text x="54" y="424" fill="#fff" font-size="42" font-weight="900">10</text><rect x="186" y="340" width="128" height="106" rx="16" fill="#102b3a"/><text x="204" y="375" fill="#86a7b4" font-size="13">PAYLOADS</text><text x="204" y="424" fill="#fff" font-size="42" font-weight="900">25</text><rect x="336" y="340" width="128" height="106" rx="16" fill="#102b3a"/><text x="354" y="375" fill="#86a7b4" font-size="13">EVIDENCE</text><text x="354" y="424" fill="#fff" font-size="42" font-weight="900">38</text></g></g></svg>