<svg xmlns="http://www.w3.org/2000/svg" width="1280" height="720" viewBox="0 0 1280 720"><defs><linearGradient id="bg" x1="0" y1="0" x2="1" y2="1"><stop stop-color="#07131f"/><stop offset="1" stop-color="#0d2636"/></linearGradient></defs><rect width="1280" height="720" fill="url(#bg)"/><g font-family="Arial,Helvetica,sans-serif"><text x="66" y="68" fill="#66def9" font-size="18" font-weight="700" letter-spacing="4">TEN COMPLETE CASE FILES</text><text x="66" y="132" fill="#fff" font-size="48" font-weight="900">Search, filter and inspect every module.</text><rect x="66" y="170" width="1148" height="74" rx="18" fill="#102536" stroke="#1d4d60"/><text x="102" y="215" fill="#82a7b5" font-size="20">⌕  Search module, category, payload, or keyword</text><g><rect x="70" y="278" width="355" height="175" rx="22" fill="#0d1c29" stroke="#2b5564"/><rect x="92" y="300" width="88" height="28" rx="14" fill="#50323b"/><text x="112" y="320" fill="#ff8795" font-size="13" font-weight="800">CRITICAL</text><text x="92" y="365" fill="#fff" font-size="28" font-weight="900">SQL Injection</text><text x="92" y="398" fill="#91aab5" font-size="16">Database Attack</text><text x="92" y="430" fill="#63dfb0" font-size="15">6 evidence screenshots</text></g><g><rect x="462" y="278" width="355" height="175" rx="22" fill="#0d1c29" stroke="#2b5564"/><rect x="484" y="300" width="66" height="28" rx="14" fill="#5a3d2d"/><text x="502" y="320" fill="#ffad70" font-size="13" font-weight="800">HIGH</text><text x="484" y="365" fill="#fff" font-size="28" font-weight="900">Command Injection</text><text x="484" y="398" fill="#91aab5" font-size="16">Server-Side Injection</text><text x="484" y="430" fill="#63dfb0" font-size="15">4 evidence screenshots</text></g><g><rect x="854" y="278" width="355" height="175" rx="22" fill="#0d1c29" stroke="#2b5564"/><rect x="876" y="300" width="88" height="28" rx="14" fill="#5b512d"/><text x="891" y="320" fill="#ffe080" font-size="13" font-weight="800">MEDIUM</text><text x="876" y="365" fill="#fff" font-size="28" font-weight="900">Brute Force</text><text x="876" y="398" fill="#91aab5" font-size="16">Authentication</text><text x="876" y="430" fill="#63dfb0" font-size="15">6 evidence screenshots</text></g><g transform="translate(66 496)"><rect width="1148" height="150" rx="24" fill="#0a1824" stroke="#1d4d60"/><text x="32" y="42" fill="#70e8ff" font-size="15" font-weight="800" letter-spacing="3">REPEATABLE WORKFLOW</text><g font-size="19" font-weight="800" fill="#fff"><text x="32" y="96">01  SCOPE</text><text x="282" y="96">02  EXECUTE</text><text x="562" y="96">03  CAPTURE</text><text x="842" y="96">04  EXPLAIN</text></g><g stroke="#4ba8bf" stroke-width="3"><line x1="168" y1="90" x2="250" y2="90"/><line x1="430" y1="90" x2="530" y2="90"/><line x1="710" y1="90" x2="810" y2="90"/></g><text x="32" y="126" fill="#8ea8b2" font-size="14">Authorized target and security level</text><text x="282" y="126" fill="#8ea8b2" font-size="14">Payload, request, URL or command</text><text x="562" y="126" fill="#8ea8b2" font-size="14">Request, response and screenshot</text><text x="842" y="126" fill="#8ea8b2" font-size="14">Impact, cause and remediation</text></g></g></svg>