<svg xmlns="http://www.w3.org/2000/svg" width="1280" height="720" viewBox="0 0 1280 720"><defs><linearGradient id="bg" x1="0" y1="0" x2="1" y2="1"><stop stop-color="#081a18"/><stop offset=".62" stop-color="#0d302d"/><stop offset="1" stop-color="#12433e"/></linearGradient><linearGradient id="card" x1="0" y1="0" x2="0" y2="1"><stop stop-color="#ffffff"/><stop offset="1" stop-color="#eff8f5"/></linearGradient></defs><rect width="1280" height="720" rx="34" fill="url(#bg)"/><path d="M-60 180C180 20 275 250 500 158S890 85 1340-40" fill="none" stroke="#26d19b" stroke-width="4" opacity=".24"/><path d="M45 750C150 560 315 625 430 505S680 390 815 450 1090 340 1320 260" fill="none" stroke="#7debc9" stroke-width="4" opacity=".2"/><circle cx="500" cy="158" r="9" fill="#26d19b"/><circle cx="815" cy="450" r="9" fill="#26d19b"/><g font-family="Arial,Helvetica,sans-serif"><text x="64" y="70" fill="#fff" font-size="28" font-weight="800">BusBD <tspan fill="#69e0bb">Intelligence</tspan></text><text x="64" y="135" fill="#65e1ba" font-size="18" font-weight="700" letter-spacing="3">✦ BANGLADESH MOVES SMARTER</text><text x="64" y="222" fill="#fff" font-size="66" font-weight="900">Every journey,</text><text x="64" y="292" fill="#8ef0ce" font-size="66" font-weight="900">intelligently connected.</text><text x="64" y="342" fill="#c6ded8" font-size="24">Search, book and track trusted buses with live GPS</text><text x="64" y="374" fill="#c6ded8" font-size="24">and AI-powered arrival predictions.</text></g><rect x="62" y="414" width="1156" height="174" rx="26" fill="url(#card)"/><g font-family="Arial,Helvetica,sans-serif"><g fill="#60736e" font-size="15" font-weight="700"><text x="94" y="452">FROM</text><text x="308" y="452">TO</text><text x="528" y="452">DATE</text><text x="730" y="452">PASSENGERS</text></g><g fill="#102a27" font-size="25" font-weight="800"><text x="94" y="500">●  Dhaka</text><text x="308" y="500">◆  Chattogram</text><text x="528" y="500">▣  21 Jul 2026</text><text x="730" y="500">♙  1 passenger</text></g><rect x="944" y="446" width="232" height="92" rx="18" fill="#0f3d37"/><text x="987" y="502" fill="#fff" font-size="24" font-weight="800">Search buses  →</text><text x="94" y="558" fill="#60736e" font-size="15">Popular now</text><rect x="190" y="536" width="230" height="36" rx="18" fill="#e1f3ed"/><text x="213" y="560" fill="#17483f" font-size="15" font-weight="700">Dhaka → Cox's Bazar</text><rect x="432" y="536" width="190" height="36" rx="18" fill="#e1f3ed"/><text x="457" y="560" fill="#17483f" font-size="15" font-weight="700">Dhaka → Sylhet</text></g><g font-family="Arial,Helvetica,sans-serif"><text x="64" y="656" fill="#6fe6c0" font-size="18" font-weight="700" letter-spacing="4">BUSBD INTELLIGENCE · LIVE DEPLOYMENT</text></g></svg>