<svg xmlns="http://www.w3.org/2000/svg" width="1280" height="720" viewBox="0 0 1280 720"><defs><linearGradient id="bg" x1="0" y1="0" x2="1" y2="1"><stop stop-color="#071916"/><stop offset="1" stop-color="#123a34"/></linearGradient><filter id="glow"><feGaussianBlur stdDeviation="8" result="b"/><feMerge><feMergeNode in="b"/><feMergeNode in="SourceGraphic"/></feMerge></filter></defs><rect width="1280" height="720" fill="url(#bg)"/><g opacity=".22" stroke="#55d8ae" fill="none"><path d="M0 120C200 20 250 220 430 140S730 80 940 170 1150 110 1280 20" stroke-width="3"/><path d="M20 640C160 500 280 560 410 470S700 390 840 445 1080 330 1280 280" stroke-width="3"/></g><rect x="86" y="72" width="1108" height="576" rx="34" fill="#f8fffc"/><g font-family="Arial,Helvetica,sans-serif"><text x="132" y="125" fill="#153a34" font-size="20" font-weight="800" letter-spacing="3">LIVE TRIP STATUS</text><circle cx="1110" cy="112" r="8" fill="#25d39b" filter="url(#glow)"/><text x="1128" y="119" fill="#59716b" font-size="16">GPS · 5 sec ago</text><rect x="132" y="160" width="74" height="74" rx="20" fill="#103f38"/><text x="155" y="208" fill="#7ff0c7" font-size="34">▰</text><text x="232" y="190" fill="#102d29" font-size="34" font-weight="900">Green Line</text><text x="232" y="220" fill="#72827e" font-size="18">GL-208 · Scania AC</text><text x="132" y="290" fill="#72827e" font-size="15" font-weight="700">DEPARTED</text><text x="132" y="330" fill="#112e2a" font-size="32" font-weight="900">10:30 PM</text><text x="828" y="290" fill="#72827e" font-size="15" font-weight="700">AI PREDICTED ARRIVAL</text><text x="828" y="330" fill="#112e2a" font-size="32" font-weight="900">7:10 AM</text><line x1="160" y1="410" x2="1110" y2="410" stroke="#d6e8e2" stroke-width="10" stroke-linecap="round"/><line x1="160" y1="410" x2="725" y2="410" stroke="#1cbf8c" stroke-width="10" stroke-linecap="round"/><g fill="#fff" stroke="#1cbf8c" stroke-width="5"><circle cx="160" cy="410" r="12"/><circle cx="445" cy="410" r="12"/><circle cx="770" cy="410" r="12"/><circle cx="1110" cy="410" r="12"/></g><circle cx="725" cy="410" r="24" fill="#113f38"/><text x="712" y="419" fill="#82f1ca" font-size="22">▰</text><g fill="#536a64" font-size="16" font-weight="700"><text x="136" y="458">Dhaka</text><text x="420" y="458">Cumilla</text><text x="748" y="458">Feni</text><text x="1060" y="458">Chattogram</text></g><rect x="132" y="508" width="310" height="70" rx="18" fill="#e5f7f0"/><text x="160" y="537" fill="#45615a" font-size="15">DELAY RISK</text><text x="160" y="563" fill="#116449" font-size="23" font-weight="900">✓ Low</text><rect x="782" y="508" width="328" height="70" rx="18" fill="#103d36"/><text x="844" y="552" fill="#fff" font-size="22" font-weight="800">Open live tracking ↗</text></g><text x="86" y="690" fill="#6ce5bd" font-family="Arial" font-size="18" font-weight="700" letter-spacing="4">REAL-TIME GPS · ETA INTELLIGENCE · ROUTE MONITORING</text></svg>